<svg width="26" height="20" viewBox="0 0 26 20" fill="none" xmlns="http://www.w3.org/2000/svg">
<g clip-path="url(#clip0_4_4)">
<path d="M15.3334 6.26663C15.3334 6.15937 15.3725 6.04913 15.4507 5.9359C15.529 5.8227 15.6162 5.74822 15.7125 5.71246C16.2959 5.49857 16.8922 5.33329 17.5015 5.21663C18.1108 5.09996 18.7516 5.04163 19.4239 5.04163C19.8441 5.04163 20.2591 5.06593 20.6688 5.11454C21.0785 5.16315 21.4778 5.23607 21.8667 5.33329C21.9834 5.37218 22.0903 5.44408 22.1875 5.54898C22.2847 5.6539 22.3334 5.77193 22.3334 5.90306C22.3334 6.12599 22.2604 6.29579 22.1146 6.41246C21.9688 6.52913 21.7889 6.55829 21.575 6.49996C21.2484 6.40274 20.9042 6.32982 20.5425 6.28121C20.1809 6.2326 19.8056 6.20829 19.4167 6.20829C18.8528 6.20829 18.3084 6.26176 17.7834 6.36871C17.2584 6.47565 16.7431 6.63607 16.2375 6.84996C15.9653 6.94718 15.7465 6.94232 15.5813 6.83538C15.416 6.72843 15.3334 6.53885 15.3334 6.26663ZM15.3334 12.6833C15.3334 12.5704 15.3725 12.4544 15.4507 12.3352C15.529 12.216 15.6162 12.1376 15.7125 12.1C16.2959 11.8861 16.8922 11.7257 17.5015 11.6187C18.1108 11.5118 18.7516 11.4583 19.4239 11.4583C19.8441 11.4583 20.2591 11.4826 20.6688 11.5312C21.0785 11.5798 21.4778 11.6527 21.8667 11.75C21.9834 11.7888 22.0903 11.8607 22.1875 11.9656C22.2847 12.0706 22.3334 12.1886 22.3334 12.3197C22.3334 12.5427 22.2604 12.7125 22.1146 12.8291C21.9688 12.9458 21.7889 12.975 21.575 12.9166C21.2484 12.8194 20.9042 12.7465 20.5425 12.6979C20.1809 12.6493 19.8056 12.625 19.4167 12.625C18.8528 12.625 18.3084 12.6736 17.7834 12.7708C17.2584 12.868 16.7431 13.0236 16.2375 13.2375C15.9653 13.3347 15.7465 13.3347 15.5813 13.2375C15.416 13.1402 15.3334 12.9555 15.3334 12.6833ZM15.3334 9.47496C15.3334 9.3677 15.3725 9.25746 15.4507 9.14424C15.529 9.03103 15.6162 8.95655 15.7125 8.92079C16.2959 8.7069 16.8922 8.54163 17.5015 8.42496C18.1108 8.30829 18.7516 8.24996 19.4239 8.24996C19.8441 8.24996 20.2591 8.27426 20.6688 8.32288C21.0785 8.37149 21.4778 8.4444 21.8667 8.54163C21.9834 8.58051 22.0903 8.65241 22.1875 8.75731C22.2847 8.86224 22.3334 8.98026 22.3334 9.1114C22.3334 9.33433 22.2604 9.50413 22.1146 9.62079C21.9688 9.73746 21.7889 9.76663 21.575 9.70829C21.2484 9.61107 20.9042 9.53815 20.5425 9.48954C20.1809 9.44093 19.8056 9.41663 19.4167 9.41663C18.8528 9.41663 18.3084 9.4701 17.7834 9.57704C17.2584 9.68399 16.7431 9.8444 16.2375 10.0583C15.9653 10.1555 15.7465 10.1507 15.5813 10.0437C15.416 9.93676 15.3334 9.74718 15.3334 9.47496ZM6.23335 15.25C7.27491 15.25 8.28878 15.3715 9.27494 15.6145C10.2611 15.8576 11.2306 16.2222 12.1834 16.7083V4.25413C11.3084 3.67079 10.3593 3.21871 9.33613 2.89788C8.31301 2.57704 7.27875 2.41663 6.23335 2.41663C5.49446 2.41663 4.77016 2.50899 4.06044 2.69371C3.35071 2.87843 2.63613 3.1069 1.91669 3.37913V16.0375C2.51946 15.7652 3.20488 15.5659 3.97294 15.4395C4.74099 15.3132 5.49446 15.25 6.23335 15.25ZM13.9334 16.7083C14.9056 16.2222 15.8584 15.8576 16.7917 15.6145C17.725 15.3715 18.7167 15.25 19.7667 15.25C20.5056 15.25 21.2688 15.3083 22.0563 15.425C22.8438 15.5416 23.5195 15.6972 24.0834 15.8916V3.37913C23.4222 3.04857 22.724 2.80551 21.9885 2.64996C21.2531 2.4944 20.5125 2.41663 19.7667 2.41663C18.7167 2.41663 17.7007 2.57704 16.7188 2.89788C15.7368 3.21871 14.8084 3.67079 13.9334 4.25413V16.7083ZM13.0584 19.0125C12.9118 19.0125 12.7731 18.9979 12.6422 18.9687C12.5113 18.9395 12.3972 18.8861 12.3 18.8083C11.3861 18.2444 10.4154 17.8069 9.38782 17.4958C8.36022 17.1847 7.30873 17.0291 6.23335 17.0291C5.52291 17.0291 4.82517 17.1166 4.14012 17.2916C3.45505 17.4666 2.77224 17.6805 2.09169 17.9333C1.64252 18.1472 1.2094 18.118 0.792312 17.8458C0.375229 17.5736 0.166687 17.1847 0.166687 16.6791V3.17496C0.166687 2.88329 0.234743 2.61593 0.370854 2.37288C0.506965 2.12982 0.711131 1.94024 0.983354 1.80413C1.80002 1.41524 2.64969 1.12843 3.53237 0.943709C4.41504 0.758987 5.31536 0.666626 6.23335 0.666626C7.45835 0.666626 8.64933 0.831904 9.80627 1.16246C10.9632 1.49301 12.0472 1.99857 13.0584 2.67913C14.05 1.99857 15.1146 1.49301 16.2521 1.16246C17.3896 0.831904 18.5611 0.666626 19.7667 0.666626C20.678 0.666626 21.5718 0.758987 22.4481 0.943709C23.3244 1.12843 24.1709 1.41524 24.9875 1.80413C25.2597 1.94024 25.4688 2.12982 25.6146 2.37288C25.7604 2.61593 25.8334 2.88329 25.8334 3.17496V16.6791C25.8334 17.2215 25.6146 17.6342 25.1771 17.9172C24.7396 18.2001 24.307 18.2055 23.8792 17.9333C23.2181 17.6611 22.545 17.4423 21.8599 17.277C21.1749 17.1118 20.4771 17.0291 19.7667 17.0291C18.7113 17.0291 17.6795 17.1847 16.671 17.4958C15.6626 17.8069 14.7111 18.2444 13.8167 18.8083C13.7195 18.8861 13.6054 18.9395 13.4745 18.9687C13.3437 18.9979 13.2049 19.0125 13.0584 19.0125Z" fill="url(#paint0_linear_4_4)" fill-opacity="0.81"/>
</g>
<defs>
<linearGradient id="paint0_linear_4_4" x1="13" y1="0.666626" x2="13" y2="19.0125" gradientUnits="userSpaceOnUse">
<stop stop-color="#8876F7" stop-opacity="0.7"/>
<stop offset="1" stop-color="#2E2181" stop-opacity="0.81"/>
</linearGradient>
<clipPath id="clip0_4_4">
<rect width="26" height="20" fill="white"/>
</clipPath>
</defs>
</svg>
