<svg width="110" height="90" viewBox="0 0 110 90" fill="none" xmlns="http://www.w3.org/2000/svg">
<path d="M71.2525 11.474L3.59362 60.2626C2.24278 61.2366 2.0885 62.9781 3.24903 64.1523L11.6918 72.694C12.8523 73.8681 14.8882 74.0303 16.239 73.0562L83.898 24.2677C85.2488 23.2936 85.4031 21.5521 84.2425 20.378L75.7998 11.8363C74.6392 10.6621 72.6034 10.5 71.2525 11.474Z" fill="#2E2181" fill-opacity="0.81"/>
<path d="M93.8622 17.2466L26.2033 66.0352C24.8525 67.0092 24.6982 68.7507 25.8587 69.9249L34.3015 78.4666C35.462 79.6407 37.4979 79.8029 38.8487 78.8288L106.508 30.0403C107.858 29.0662 108.013 27.3247 106.852 26.1506L98.4095 17.6089C97.2489 16.4347 95.2131 16.2725 93.8622 17.2466Z" fill="#8876F7" fill-opacity="0.7"/>
</svg>
