<svg width="26" height="24" viewBox="0 0 26 24" fill="none" xmlns="http://www.w3.org/2000/svg">
<g clip-path="url(#clip0_4_2)">
<path d="M14.4875 23.6667C14.0403 23.6667 13.7146 23.5209 13.5104 23.2292C13.3063 22.9375 13.282 22.5778 13.4375 22.15L17.725 10.775C17.8417 10.4639 18.0556 10.2014 18.3667 9.98754C18.6778 9.77365 18.9986 9.66671 19.3292 9.66671C19.6597 9.66671 19.9854 9.77365 20.3063 9.98754C20.6271 10.2014 20.8459 10.4639 20.9625 10.775L25.3375 22.0334C25.5125 22.4806 25.4931 22.8646 25.2792 23.1855C25.0653 23.5063 24.7056 23.6667 24.2 23.6667C23.9861 23.6667 23.782 23.5987 23.5875 23.4625C23.3931 23.3264 23.257 23.1514 23.1792 22.9375L22.2167 19.9917H16.6167L15.5084 22.9667C15.4306 23.1612 15.2945 23.3264 15.1 23.4625C14.9056 23.5987 14.7014 23.6667 14.4875 23.6667ZM17.2584 17.95H21.4L19.3584 12.2917H19.3L17.2584 17.95ZM7.42919 7.97504C7.72085 8.4806 8.04169 8.97157 8.39169 9.44796C8.74169 9.92435 9.12085 10.4153 9.52919 10.9209C10.4042 10.007 11.1334 9.05907 11.7167 8.07712C12.3 7.09518 12.7959 6.06949 13.2042 5.00004H1.33335C1.0028 5.00004 0.725715 4.88824 0.502104 4.66462C0.278493 4.44101 0.166687 4.16393 0.166687 3.83337C0.166687 3.50282 0.278493 3.22574 0.502104 3.00212C0.725715 2.77851 1.0028 2.66671 1.33335 2.66671H8.33335V1.50004C8.33335 1.16949 8.44516 0.892402 8.66877 0.668791C8.89238 0.44518 9.16947 0.333374 9.50002 0.333374C9.83058 0.333374 10.1077 0.44518 10.3313 0.668791C10.5549 0.892402 10.6667 1.16949 10.6667 1.50004V2.66671H17.6667C17.9972 2.66671 18.2743 2.77851 18.4979 3.00212C18.7215 3.22574 18.8334 3.50282 18.8334 3.83337C18.8334 4.16393 18.7215 4.44101 18.4979 4.66462C18.2743 4.88824 17.9972 5.00004 17.6667 5.00004H15.5375C15.1097 6.34171 14.541 7.65907 13.8313 8.95212C13.1215 10.2452 12.2514 11.475 11.2209 12.6417L14.0792 15.5292L13.2042 17.8917L9.50002 14.3334L4.45419 19.3792C4.2403 19.5931 3.9778 19.7 3.66669 19.7C3.35558 19.7 3.09308 19.5834 2.87919 19.35C2.64585 19.1362 2.52919 18.8737 2.52919 18.5625C2.52919 18.2514 2.64585 17.9792 2.87919 17.7459L8.01252 12.6125C7.50697 12.0098 7.03058 11.4021 6.58335 10.7896C6.13613 10.1771 5.7278 9.55004 5.35835 8.90837C5.12502 8.4806 5.10558 8.11115 5.30002 7.80004C5.49447 7.48893 5.84447 7.33337 6.35002 7.33337C6.56391 7.33337 6.77294 7.39657 6.9771 7.52296C7.18127 7.64935 7.33197 7.80004 7.42919 7.97504Z" fill="url(#paint0_linear_4_2)" fill-opacity="0.81"/>
</g>
<defs>
<linearGradient id="paint0_linear_4_2" x1="12.8112" y1="0.333374" x2="12.8112" y2="23.6667" gradientUnits="userSpaceOnUse">
<stop stop-color="#8876F7" stop-opacity="0.7"/>
<stop offset="1" stop-color="#2E2181" stop-opacity="0.81"/>
</linearGradient>
<clipPath id="clip0_4_2">
<rect width="26" height="24" fill="white"/>
</clipPath>
</defs>
</svg>
