<svg width="210" height="38" viewBox="0 0 210 38" fill="none" xmlns="http://www.w3.org/2000/svg">
<g clip-path="url(#clip0_6_6)">
<path d="M20.52 3.73599L19.704 9.35198H7.992V17.32H18.216V22.84H7.992V31.336H20.52V37H0.119995V3.73599H20.52Z" fill="#141414"/>
<path d="M52.9489 10.696C54.9649 10.696 56.5809 11.384 57.7969 12.76C59.0129 14.104 59.6209 15.976 59.6209 18.376V37H52.0369V19.672C52.0369 17.4 51.3169 16.264 49.8769 16.264C49.0769 16.264 48.3729 16.536 47.7649 17.08C47.1569 17.624 46.5649 18.456 45.9889 19.576V37H38.4049V19.672C38.4049 17.4 37.6849 16.264 36.2449 16.264C35.4769 16.264 34.7729 16.552 34.1329 17.128C33.5249 17.672 32.9329 18.488 32.3569 19.576V37H24.7729V11.512H31.3969L31.9249 14.488C32.9169 13.208 34.0049 12.264 35.1889 11.656C36.4049 11.016 37.7809 10.696 39.3169 10.696C40.7569 10.696 41.9889 11.048 43.0129 11.752C44.0689 12.456 44.8369 13.448 45.3169 14.728C46.3409 13.352 47.4609 12.344 48.6769 11.704C49.9249 11.032 51.3489 10.696 52.9489 10.696Z" fill="#141414"/>
<path d="M85.5757 29.608C85.5757 30.568 85.7038 31.272 85.9597 31.72C86.2477 32.168 86.6957 32.504 87.3037 32.728L85.7197 37.672C84.1517 37.544 82.8717 37.208 81.8797 36.664C80.8877 36.088 80.1197 35.192 79.5757 33.976C77.9117 36.536 75.3517 37.816 71.8957 37.816C69.3677 37.816 67.3517 37.08 65.8477 35.608C64.3438 34.136 63.5917 32.216 63.5917 29.848C63.5917 27.064 64.6157 24.936 66.6637 23.464C68.7117 21.992 71.6717 21.256 75.5437 21.256H78.1357V20.152C78.1357 18.648 77.8157 17.624 77.1757 17.08C76.5357 16.504 75.4157 16.216 73.8157 16.216C72.9837 16.216 71.9757 16.344 70.7917 16.6C69.6077 16.824 68.3917 17.144 67.1437 17.56L65.4157 12.568C67.0157 11.96 68.6477 11.496 70.3117 11.176C72.0077 10.856 73.5757 10.696 75.0157 10.696C78.6637 10.696 81.3357 11.448 83.0317 12.952C84.7277 14.456 85.5757 16.712 85.5757 19.72V29.608ZM74.1037 32.392C75.8317 32.392 77.1758 31.576 78.1357 29.944V25.432H76.2637C74.5358 25.432 73.2397 25.736 72.3757 26.344C71.5437 26.952 71.1277 27.896 71.1277 29.176C71.1277 30.2 71.3837 31 71.8957 31.576C72.4397 32.12 73.1757 32.392 74.1037 32.392Z" fill="#141414"/>
<path d="M106.545 10.696C108.753 10.696 110.481 11.368 111.729 12.712C112.977 14.056 113.601 15.944 113.601 18.376V37H106.017V19.672C106.017 18.392 105.809 17.512 105.393 17.032C105.009 16.52 104.417 16.264 103.617 16.264C102.081 16.264 100.609 17.368 99.2006 19.576V37H91.6166V11.512H98.2406L98.7686 14.536C99.8566 13.256 101.025 12.296 102.273 11.656C103.553 11.016 104.977 10.696 106.545 10.696Z" fill="#141414"/>
<path d="M140.824 37H134.248L133.912 33.784C132.056 36.472 129.48 37.816 126.184 37.816C123.848 37.816 122.072 37.112 120.856 35.704C119.672 34.296 119.08 32.328 119.08 29.8V11.512H126.664V28.84C126.664 30.088 126.856 30.968 127.24 31.48C127.656 31.96 128.28 32.2 129.112 32.2C130.712 32.2 132.088 31.208 133.24 29.224V11.512H140.824V37Z" fill="#141414"/>
<path d="M169.012 23.752C169.012 24.808 168.965 25.72 168.868 26.488H153.076C153.332 28.632 153.94 30.136 154.9 31C155.861 31.864 157.188 32.296 158.884 32.296C159.908 32.296 160.9 32.12 161.86 31.768C162.82 31.384 163.861 30.808 164.98 30.04L168.1 34.264C165.124 36.632 161.812 37.816 158.164 37.816C154.036 37.816 150.868 36.6 148.66 34.168C146.452 31.736 145.348 28.472 145.348 24.376C145.348 21.784 145.812 19.464 146.74 17.416C147.668 15.336 149.028 13.704 150.82 12.52C152.612 11.304 154.757 10.696 157.253 10.696C160.932 10.696 163.812 11.848 165.893 14.152C167.973 16.456 169.012 19.656 169.012 23.752ZM161.572 21.592C161.508 17.688 160.132 15.736 157.444 15.736C156.132 15.736 155.108 16.216 154.372 17.176C153.669 18.136 153.236 19.72 153.076 21.928H161.572V21.592Z" fill="#141414"/>
<path d="M180.041 37.816C177.833 37.816 176.105 37.192 174.857 35.944C173.641 34.664 173.033 32.856 173.033 30.52V1.38399L180.617 0.567993V30.232C180.617 31.288 181.049 31.816 181.913 31.816C182.361 31.816 182.777 31.736 183.161 31.576L184.649 36.952C183.273 37.528 181.737 37.816 180.041 37.816Z" fill="#141414"/>
<path d="M207.544 29.608C207.544 30.568 207.673 31.272 207.928 31.72C208.216 32.168 208.664 32.504 209.272 32.728L207.688 37.672C206.12 37.544 204.84 37.208 203.848 36.664C202.856 36.088 202.089 35.192 201.544 33.976C199.88 36.536 197.32 37.816 193.865 37.816C191.337 37.816 189.32 37.08 187.816 35.608C186.312 34.136 185.561 32.216 185.561 29.848C185.561 27.064 186.584 24.936 188.632 23.464C190.68 21.992 193.641 21.256 197.512 21.256H200.104V20.152C200.104 18.648 199.785 17.624 199.145 17.08C198.505 16.504 197.385 16.216 195.785 16.216C194.952 16.216 193.945 16.344 192.76 16.6C191.576 16.824 190.36 17.144 189.112 17.56L187.384 12.568C188.984 11.96 190.617 11.496 192.281 11.176C193.977 10.856 195.544 10.696 196.984 10.696C200.632 10.696 203.305 11.448 205.001 12.952C206.697 14.456 207.544 16.712 207.544 19.72V29.608ZM196.072 32.392C197.8 32.392 199.144 31.576 200.104 29.944V25.432H198.232C196.505 25.432 195.208 25.736 194.344 26.344C193.512 26.952 193.096 27.896 193.096 29.176C193.096 30.2 193.353 31 193.865 31.576C194.409 32.12 195.145 32.392 196.072 32.392Z" fill="#141414"/>
</g>
<defs>
<clipPath id="clip0_6_6">
<rect width="210" height="38" fill="white"/>
</clipPath>
</defs>
</svg>
